<?xml version="1.0" encoding="utf-8"?>
<!-- Generator: Adobe Illustrator 28.3.0, SVG Export Plug-In . SVG Version: 6.00 Build 0)  -->
<svg version="1.1" id="Layer_1" xmlns="http://www.w3.org/2000/svg" xmlns:xlink="http://www.w3.org/1999/xlink" x="0px" y="0px"
	 viewBox="0 0 2824.3 693.1" style="enable-background:new 0 0 2824.3 693.1;" xml:space="preserve">
<style type="text/css">
	.st0{fill:#191919;}
	.st1{fill:#FFBF00;}
	.st2{fill:#FFFFFF;}
	.st3{fill:#D3AE11;}
</style>
<path class="st0" d="M2835,2100v67.6h48.9v-14.2h-28.5v-12.4h26.7v-14.2h-26.7v-12.7h28.5V2100H2835z"/>
<path class="st0" d="M2953.4,2167.6h-22.2l-11.8-26.5h-4.2v26.5h-20.4V2100h38.7c12,0,16.1,5.6,16.1,13.7v11.4
	c0,12.1-7.1,15.7-9.8,16h-0.2L2953.4,2167.6z M2915.3,2114.3v12.6h13.3c1.2,0,1.7-0.5,1.7-1.8v-8.9c0-1.3-0.5-1.8-1.7-1.8
	L2915.3,2114.3z"/>
<path class="st0" d="M2997.5,2100l-8.1,35.9l-1.9,12.5h-1.3l-1.8-12.5l-8.1-35.9h-21.6l18.9,67.6h25l19.1-67.6L2997.5,2100z"/>
<path class="st0" d="M3033.2,2100l-19.1,67.6h22.2l2-11.4h13.5l2.3,11.4h23.1l-18.9-67.6H3033.2z M3042.3,2132.5l2.1-13.2h1.3
	l2,13.2l2.2,9.5h-9.6L3042.3,2132.5z"/>
<path class="st0" d="M2794.8,2117.8v32c0,1.3,0.5,1.8,1.7,1.8h22.2c2.4,0,4.5,0,6.3,0v16h-34.5c-12,0-16.1-5.6-16.1-13.7v-40.2
	c0-8.1,4-13.7,16.1-13.7h34.5v16h-6.3h-22.1C2795.3,2116,2794.8,2116.5,2794.8,2117.8"/>
<path class="st1" d="M2774.4,2091.8h45.1c5.6,0,8.2-2.9,8.2-8.4v-7.6h-53.3V2091.8z"/>
<g>
	<g>
		<path class="st2" d="M0,687.4V358h31.3l13.3,51.7v277.7H0z M227.8,687.4L25.6,417.3l5.7-59.3L234,627.6L227.8,687.4z M227.8,687.4
			l-13.3-48.9V358h44.6v329.4H227.8z"/>
		<path class="st2" d="M487,692.1c-23.4,0-45.3-4.4-65.5-13.1c-20.3-8.7-38-20.9-53.2-36.5s-27-33.8-35.4-54.3
			c-8.4-20.6-12.6-42.6-12.6-66c0-23.7,4.2-45.8,12.6-66.2c8.4-20.4,20.1-38.4,35.1-53.9c15-15.5,32.6-27.5,52.7-36.1
			c20.1-8.5,41.8-12.8,65.3-12.8c23.4,0,45.2,4.3,65.3,12.8c20.1,8.5,37.7,20.6,52.9,36.1c15.2,15.5,27.1,33.5,35.6,54.1
			c8.5,20.6,12.8,42.7,12.8,66.4c0,23.4-4.3,45.4-12.8,66c-8.5,20.6-20.3,38.6-35.4,54.1c-15,15.5-32.6,27.6-52.7,36.3
			C531.6,687.8,510.1,692.1,487,692.1z M486,649.4c23.7,0,44.5-5.5,62.4-16.4c17.9-10.9,32-25.9,42.5-45.1
			c10.4-19.1,15.7-41.1,15.7-65.7c0-18.3-3-35.2-9-50.5c-6-15.3-14.4-28.7-25.2-40.1c-10.8-11.4-23.4-20.2-38-26.3
			c-14.6-6.2-30.7-9.3-48.4-9.3c-23.4,0-44.1,5.4-61.9,16.1c-17.9,10.8-32,25.6-42.2,44.6c-10.3,19-15.4,40.8-15.4,65.5
			c0,18.4,2.9,35.4,8.8,51c5.9,15.7,14.1,29.1,24.7,40.3c10.6,11.2,23.3,20,38,26.3C452.5,646.2,468.6,649.4,486,649.4z"/>
		<path class="st2" d="M665.4,398.8V358h268.2v40.8H665.4z M777.4,687.4V367.5H822v319.9H777.4z"/>
		<path class="st2" d="M986.7,687.4V358h44.6v329.4H986.7z M1017.1,398.8V358h186.5v40.8H1017.1z M1017.1,538.3v-38.9h173.2v38.9
			H1017.1z M1017.1,687.4v-40.8H1206v40.8H1017.1z"/>
		<path class="st3" d="M1341.3,687.4V349.4h94.9v337.9H1341.3z M1546.3,687.4l-118.2-176.1l112.5-161.8H1655l-130,175.6v-30.4
			l135.3,192.7H1546.3z"/>
		<path class="st3" d="M1682.5,687.4V349.4h94.9v337.9H1682.5z"/>
		<path class="st3" d="M1833.5,687.4V349.4h66.4l28.5,71.2v266.7H1833.5z M2066,687.4L1870,441l29.9-91.6l196,246.3L2066,687.4z
			 M2066,687.4l-23.7-75V349.4h94.9v337.9H2066z"/>
		<path class="st3" d="M2359.8,693.1c-26.3,0-50.5-4.4-72.9-13.1c-22.3-8.7-41.8-21-58.4-36.8c-16.6-15.8-29.5-34.3-38.7-55.5
			c-9.2-21.2-13.8-44.3-13.8-69.3c0-25.3,4.8-48.6,14.5-69.8c9.6-21.2,23.1-39.6,40.3-55.3c17.2-15.7,37.3-27.8,60-36.5
			c22.8-8.7,47.1-13.1,73.1-13.1c31.3,0,59.4,5.4,84.2,16.1c24.8,10.8,45,25.3,60.5,43.7l-64.1,64.1c-11.7-13.6-23.9-23.7-36.5-30.4
			c-12.7-6.6-27.8-10-45.6-10c-16.8,0-32,3.7-45.6,11.2c-13.6,7.4-24.4,18-32.5,31.6c-8.1,13.6-12.1,29.6-12.1,47.9
			c0,18.4,3.7,34.4,11.2,48.2c7.4,13.8,17.8,24.4,31.1,32c13.3,7.6,28.8,11.4,46.5,11.4c17.1,0,31.5-3.3,43.2-10
			c11.7-6.6,20.6-16.1,26.8-28.5c6.2-12.3,9.3-26.9,9.3-43.7l65,41.3l-157.1-4.7V488h187.5v14.2c0,40.5-7.4,75-22.1,103.5
			s-35.3,50.2-61.7,65C2425.7,685.6,2394.9,693.1,2359.8,693.1z"/>
	</g>
	<g id="_x36_cOuFx.tif">
		<g>
			<path class="st3" d="M2778,374.7c-8.3-4.3-16.6-8.9-25.8-11.1c-14.1-3.4-28.4-5.7-42.1-10.8c-12.6-4.7-14.7-9.5-8.9-21.6
				c5.3-11.2,10.9-22.3,16.1-33.6c4.8-10.3,9.2-20.9,13.9-31.3c1.2-2.7,0.3-4.2-2.2-5.2c-1.9-0.8-3.8-1.2-5.8-1.4
				c-5.2-0.7-10.4-0.7-15.7-0.6c-16.1,0.3-32,3.1-47.8,5.5c-15.8,2.4-31.8,1.8-47.7,3.4c-2.6,0.3-2.8-0.5-2.7-2.7
				c0.8-12.7,2.2-25.3,4.5-37.9c9-50.1,10.4-100.4,5.2-151c-0.5-4.7-1-9.3-2.4-13.8c-2-6.5-6.2-7.9-11.6-3.7
				c-3.4,2.6-6.7,5.6-10,8.3c-29.5,24.7-58.6,49.8-84.4,78.6c-17.7,19.7-35.7,39-54.4,57.6c-4.8,4.8-5.3,4.6-7.6-1.9
				c-1.7-4.7-2.5-9.7-4.5-14.4c-5-11.6-9.6-23.4-13.5-35.4c-6.2-19.2-15.4-36.9-25.1-54.4c-4.8-8.7-9.8-9.3-16.9-2.4
				c-3.2,3.1-6.3,6.3-9.4,9.5c-12.9,13.5-24.7,27.9-38.3,40.7c-4.2,4-8.4,8.1-13.4,11c-5.4,3.2-9.5,2.6-13.9-1.9
				c-1.1-1.1-2.1-2.3-3-3.6c-5.6-7.5-11.2-15-16.9-22.4c-6.5-8.6-13.1-17.2-22.5-23.1c-7.6-4.8-13.2-2.6-15.9,5.9
				c-3.4,10.9-3.8,22.2-3.1,33.5c1.7,26.9,6.1,53.4,7.8,80.3c0.1,1,0.3,2,0.5,3c1.5,7.5,6,11.7,13.4,13c1.9,0.3,3.8,0.7,5.6,0.7
				c29.7,0,57.8,8.8,86.3,15.8c9.1,2.3,17.4,6.8,26.5,9.4c17.5,5,35,10.1,51.9,16.8c20.1,7.9,39.5,17.4,64.2,30.1
				c19.4,10.3,44.6,23,68.1,38.6c24.2,16.1,46.6,34.2,66.6,55.2c11.1,11.6,20.5,24.7,33.1,34.9c1.7,1.4,3.1,1.8,5.1,0.9
				c4.3-1.9,8.3-4.3,12.3-6.8c14-8.8,27-18.9,41.6-26.8c13.4-7.2,26.7-14.5,38.4-24.3c2-1.7,4.1-3.2,5.5-5.3
				C2780.4,377.7,2780.3,375.8,2778,374.7z M2756.3,379c-19.3,14-39,27.6-59,40.6c-3.2,2.1-6.5,3.8-10,5.5c-3.2,1.5-5.3,1.1-7.7-1.8
				c-12.3-14.8-24.9-29.4-38-43.6c-23.4-25.4-50.2-46.4-80.9-62.5c-26.6-14-53.1-28.3-80.6-40.4c-38.5-16.9-77.9-31.6-118.7-41.8
				c-20.3-5.1-41.3-7.1-62-10c-6.8-0.9-13.7-1.9-20.6-1.9c-0.9,0-1.5,0-1.6-1.1c-2.3-28.3-11.4-55.6-12.6-84.1
				c-0.3-6.4-0.1-12.7,1.7-18.9c0.3-1,0.6-1.9,1.1-3.3c5.2,4,8.6,9,11.6,14.2c9.5,16.2,22.6,28.9,37.1,40.4
				c7.3,5.8,12.7,5.6,19.8-0.4c6.5-5.5,11.2-12.7,16.7-19.1c11.9-13.8,23.9-27.4,35.4-41.5c4.2-5.2,8.2-4.4,10.6,1.9
				c0.5,1.2,0.9,2.5,1.2,3.8c3.8,21.9,13.1,41.7,22.2,61.6c5,10.7,10.5,21.2,15.8,31.8c1.2,2.5,2.6,5,4.4,7.1
				c5.1,5.8,11.3,6.9,18,3.1c3.5-2,6.5-4.7,9.4-7.5c15.7-14.8,29.5-31.4,43.7-47.5c17.5-19.8,36.8-38,56.1-56
				c6.3-5.9,11.5-12.7,17.5-18.9c3.2-3.4,6.6-6.7,10.6-9.1c5.3-3.3,8.9-1.7,10.3,4.4c1.6,7,0.4,14,0,21c-0.7,11-1.9,22-4.3,32.8
				c-1.5,6.9-1.5,14-1.3,21c0.9,34-2,67.7-7.7,101.2c-0.5,2.8-0.8,5.8-0.8,8.6c0,9.6,4.7,14.9,14.2,16.3c7.3,1.1,14.5,0.1,21.6-1.4
				c25.3-5.5,51.1-7.1,76.6-10.6c5-0.7,7.2,1.7,6.2,6.7c-1.3,6.5-4.3,12.5-7.4,18.3c-4.5,8.5-9.3,16.8-14.1,25.2
				c-5.1,9-9.3,18.3-11.6,28.4c-0.2,1-0.4,2-0.6,3c-0.7,4.7,0.6,6.6,5.1,7.9c12.5,3.8,25.3,6.6,38,9.4c3.5,0.8,7,1.6,10.4,2.5
				c5.7,1.4,11.4,2.3,17.2,1.8c3-0.2,6-0.1,8.8,1.3C2758,378.4,2756.9,378.5,2756.3,379z"/>
			<path class="st3" d="M2648.2,5.6c-12.2-10.2-33.1-5.9-40.8,7.9c-3,5.4-3.9,11.3-1.2,17c4.9,10.5,13.4,16.3,24.9,16.9
				c10.8,0.6,17.6-5.7,21.8-13.8C2659.3,20.9,2657,13.1,2648.2,5.6z M2639.6,27.7c-4.2,4.6-7.9,5.5-13.9,2.4
				c-2.8-1.7-6.1-3.8-5.9-8.3c0.2-3.5,3.7-6.3,8.6-7.2c2.4-0.5,4.8-0.4,7.3,0.1C2641.6,15.8,2643.4,23.7,2639.6,27.7z"/>
			<path class="st3" d="M2774.9,229.3c-1.4-1.6-3.5-1.8-4.9-3.4c-2.5-3-5.9-4.7-9.6-5.8c-15.5-4.7-31.7,8.3-29.3,23.5
				c1.5,9.4,10.6,17.8,21,19.5c10.3,1.7,20.1-3.1,24.7-12.2C2780.7,243.4,2779.8,235,2774.9,229.3z M2751.3,247.2
				c-5.1-2.5-7.3-7.1-5.3-11c2.6-5.1,8.9-6.6,14.9-3.7c4,2,5.7,7.3,3.6,11.3C2762.3,248,2756.2,249.6,2751.3,247.2z"/>
			<path class="st3" d="M2426.4,55.5c-3.5-9.3-14.6-14.1-25.4-11.1c-6.3,1.8-11.5,5.2-15.6,10.4c-4.2,5.3-5,11.2-2,16.2
				c2.9,4.7,6.7,8.6,10.3,10.5c8,4.2,14.7,4.3,21.4,1.1C2425.1,77.8,2430.2,65.7,2426.4,55.5z M2411.6,67.9c-2.7,3.3-7.3,4-11.9,1.6
				c-2-1.2-4.6-2.6-4.5-5.7c0.1-3,2.4-4.9,5-6.2c3-1.6,6.3-2.1,9.7-2.3c0.7,0,1.3-0.1,1.8,0.5C2413.6,58.4,2413.6,65.4,2411.6,67.9z
				"/>
			<path class="st3" d="M2284.7,75.7c0.5-7.8-3.8-15.1-10.6-16.1c-3.9-0.6-7.4-1.9-11.1-2.8c-4.7-1.1-9.1-0.2-13.1,2.5
				c-11.8,7.9-10.5,28.6,2.2,35C2265.6,101.1,2283.7,90.8,2284.7,75.7z M2258.7,81.3c-2.7-1.4-3.8-7.1-2-10.3
				c1.2-2.1,8-3.5,10.5-2.1c2.2,1.2,3.4,5.8,2.2,8.1C2267.5,80.6,2261.7,82.9,2258.7,81.3z"/>
			<path class="st3" d="M2823,356c-1.7-4.3-4.6-7.1-9.6-6.9c-1.2,0.1-1.8-0.4-2.6-1c-8.8-7.3-21.4-4.6-27.3,7.1
				c-2.8,6.1-2.4,13.4,2.7,20c5.4,6.9,12.7,9.3,21.2,7.5C2820.1,379.9,2827.5,367.1,2823,356z M2799.8,368.2c-3.2-1.6-4.6-5.7-3-8.8
				c1.8-3.6,6.1-4.7,10.1-2.6c2.6,1.4,4.1,5.8,2.8,8.3C2808,368.4,2803.1,369.9,2799.8,368.2z"/>
		</g>
	</g>
</g>
</svg>
